<svg width="6830" height="761" viewBox="0 0 6830 761" fill="none" xmlns="http://www.w3.org/2000/svg">
<path d="M32.5 530V522L72.5 502V228L32.5 208V200H277V286H269L238 227.5H117.5V346H202.5L227.5 304.5H235.5V414H227.5L202.5 373.5H117.5V502.5H252L283 439H291V530H32.5ZM550.672 535C530.005 535 512.505 533.167 498.172 529.5C483.839 525.5 469.005 519.667 453.672 512L448.672 430H456.672L481.172 483C493.172 493 504.839 500.333 516.172 505C527.505 509.333 539.005 511.5 550.672 511.5C570.339 511.5 585.672 506.333 596.672 496C608.005 485.667 613.672 471.667 613.672 454C613.672 439.333 610.339 427.833 603.672 419.5C597.339 411.167 588.005 403.833 575.672 397.5C563.672 390.833 549.339 383.333 532.672 375C517.005 367 503.672 359.167 492.672 351.5C481.672 343.833 473.339 335 467.672 325C462.005 314.667 459.172 301.833 459.172 286.5C459.172 275.167 461.839 264.167 467.172 253.5C472.839 242.5 480.339 232.667 489.672 224C499.339 215 510.005 208 521.672 203C533.672 197.667 546.005 195 558.672 195C574.005 195 588.172 196.833 601.172 200.5C614.172 204.167 627.505 209.333 641.172 216L646.172 296H638.172L615.172 243.5C603.505 234.833 593.339 228.667 584.672 225C576.005 221 566.005 219 554.672 219C540.005 219 527.839 224 518.172 234C508.839 244 504.172 256.333 504.172 271C504.172 288 509.339 301.333 519.672 311C530.005 320.333 546.172 330.333 568.172 341C588.505 351 605.172 360.333 618.172 369C631.172 377.333 640.839 387 647.172 398C653.505 409 656.672 423 656.672 440C656.672 455.667 653.339 469.5 646.672 481.5C640.005 493.167 631.339 503 620.672 511C610.339 519 598.839 525 586.172 529C573.839 533 562.005 535 550.672 535ZM872.797 530V522L922.797 502V227.5H841.297L807.297 301H799.297V200H1091.3V301H1083.3L1049.3 227.5H967.797V502L1017.8 522V530H872.797ZM1238.71 530V522L1278.71 502V228L1238.71 208V200H1483.21V286H1475.21L1444.21 227.5H1323.71V346H1408.71L1433.71 304.5H1441.71V414H1433.71L1408.71 373.5H1323.71V502.5H1458.21L1489.21 439H1497.21V530H1238.71ZM1657.38 530V522L1697.38 502V228L1657.38 208V200H1787.38V208L1742.38 228V502.5H1863.88L1897.88 419H1905.88V530H1657.38ZM2040.04 530V522L2072.04 505.5L2200.04 197.5H2222.54L2348.54 504L2382.04 522V530H2258.04V522L2302.04 505L2264.54 412.5H2143.04L2106.04 505L2148.04 522V530H2040.04ZM2154.54 385H2253.54L2204.04 262L2154.54 385ZM2840.54 535C2819.87 535 2802.37 533.167 2788.04 529.5C2773.7 525.5 2758.87 519.667 2743.54 512L2738.54 430H2746.54L2771.04 483C2783.04 493 2794.7 500.333 2806.04 505C2817.37 509.333 2828.87 511.5 2840.54 511.5C2860.2 511.5 2875.54 506.333 2886.54 496C2897.87 485.667 2903.54 471.667 2903.54 454C2903.54 439.333 2900.2 427.833 2893.54 419.5C2887.2 411.167 2877.87 403.833 2865.54 397.5C2853.54 390.833 2839.2 383.333 2822.54 375C2806.87 367 2793.54 359.167 2782.54 351.5C2771.54 343.833 2763.2 335 2757.54 325C2751.87 314.667 2749.04 301.833 2749.04 286.5C2749.04 275.167 2751.7 264.167 2757.04 253.5C2762.7 242.5 2770.2 232.667 2779.54 224C2789.2 215 2799.87 208 2811.54 203C2823.54 197.667 2835.87 195 2848.54 195C2863.87 195 2878.04 196.833 2891.04 200.5C2904.04 204.167 2917.37 209.333 2931.04 216L2936.04 296H2928.04L2905.04 243.5C2893.37 234.833 2883.2 228.667 2874.54 225C2865.87 221 2855.87 219 2844.54 219C2829.87 219 2817.7 224 2808.04 234C2798.7 244 2794.04 256.333 2794.04 271C2794.04 288 2799.2 301.333 2809.54 311C2819.87 320.333 2836.04 330.333 2858.04 341C2878.37 351 2895.04 360.333 2908.04 369C2921.04 377.333 2930.7 387 2937.04 398C2943.37 409 2946.54 423 2946.54 440C2946.54 455.667 2943.2 469.5 2936.54 481.5C2929.87 493.167 2921.2 503 2910.54 511C2900.2 519 2888.7 525 2876.04 529C2863.7 533 2851.87 535 2840.54 535ZM3078.28 530V522L3110.28 505.5L3238.28 197.5H3260.78L3386.78 504L3420.28 522V530H3296.28V522L3340.28 505L3302.78 412.5H3181.28L3144.28 505L3186.28 522V530H3078.28ZM3192.78 385H3291.78L3242.28 262L3192.78 385ZM3559.28 530V522L3599.28 502V229L3559.78 208V200H3633.28L3824.28 440V227L3774.28 208V200H3898.78V208L3859.28 227.5V532.5H3840.78L3634.28 272V502.5L3684.28 522V530H3559.28ZM4046.19 419V384H4183.69V419H4046.19ZM4331.19 530V522L4370.69 502L4381.19 228.5L4338.19 208V200H4430.69L4546.19 466L4661.19 200H4749.19V208L4707.19 228L4715.69 502L4750.69 522V530H4635.69V522L4672.69 502.5L4667.69 256L4548.19 532.5H4525.69L4408.19 259.5L4401.69 502.5L4442.19 522V530H4331.19ZM4908.18 530V522L4948.18 502V228L4908.18 208V200H5033.18V208L4993.18 228V502L5033.18 522V530H4908.18ZM5193.01 530V522L5233.01 502V228L5193.01 208V200H5323.01V208L5278.01 228V502.5H5399.51L5433.51 419H5441.51V530H5193.01ZM5596.54 530V522L5636.54 502V228L5596.54 208V200H5726.54V208L5681.54 228V502.5H5803.04L5837.04 419H5845.04V530H5596.54ZM5979.2 530V522L6011.2 505.5L6139.2 197.5H6161.7L6287.7 504L6321.2 522V530H6197.2V522L6241.2 505L6203.7 412.5H6082.2L6045.2 505L6087.2 522V530H5979.2ZM6093.7 385H6192.7L6143.2 262L6093.7 385ZM6148.2 175L6191.7 99H6232.7C6232.7 104 6231.7 109.167 6229.7 114.5C6228.03 119.833 6223.53 125.167 6216.2 130.5L6153.7 175H6148.2ZM6460.2 530V522L6500.2 502V229L6460.7 208V200H6534.2L6725.2 440V227L6675.2 208V200H6799.7V208L6760.2 227.5V532.5H6741.7L6535.2 272V502.5L6585.2 522V530H6460.2Z" fill="#1A1A1A"/>
</svg>
